%TF.GenerationSoftware,KiCad,Pcbnew,5.1.8-db9833491~88~ubuntu20.04.1*%
%TF.CreationDate,2021-06-21T07:11:52+02:00*%
%TF.ProjectId,chain-oiler,63686169-6e2d-46f6-996c-65722e6b6963,rev?*%
%TF.SameCoordinates,Original*%
%TF.FileFunction,Soldermask,Top*%
%TF.FilePolarity,Negative*%
%FSLAX46Y46*%
G04 Gerber Fmt 4.6, Leading zero omitted, Abs format (unit mm)*
G04 Created by KiCad (PCBNEW 5.1.8-db9833491~88~ubuntu20.04.1) date 2021-06-21 07:11:52*
%MOMM*%
%LPD*%
G01*
G04 APERTURE LIST*
%TA.AperFunction,Profile*%
%ADD10C,0.050000*%
%TD*%
%ADD11R,2.150000X0.700000*%
%ADD12R,0.700000X2.150000*%
%ADD13C,3.000000*%
%ADD14C,1.000000*%
%ADD15O,1.700000X1.700000*%
%ADD16R,1.700000X1.700000*%
%ADD17R,1.700000X1.300000*%
%ADD18C,2.000000*%
%ADD19R,1.050000X0.450000*%
%ADD20R,1.470000X0.895000*%
%ADD21R,2.000000X1.780000*%
%ADD22R,1.600000X1.600000*%
%ADD23C,1.600000*%
G04 APERTURE END LIST*
D10*
X100000000Y-100000000D02*
X100000000Y-130000000D01*
X170000000Y-100000000D02*
X100000000Y-100000000D01*
X170000000Y-130000000D02*
X170000000Y-100000000D01*
X100000000Y-130000000D02*
X170000000Y-130000000D01*
%TO.C,U5*%
G36*
G01*
X132325000Y-127650000D02*
X132175000Y-127650000D01*
G75*
G02*
X132100000Y-127575000I0J75000D01*
G01*
X132100000Y-126250000D01*
G75*
G02*
X132175000Y-126175000I75000J0D01*
G01*
X132325000Y-126175000D01*
G75*
G02*
X132400000Y-126250000I0J-75000D01*
G01*
X132400000Y-127575000D01*
G75*
G02*
X132325000Y-127650000I-75000J0D01*
G01*
G37*
G36*
G01*
X132825000Y-127650000D02*
X132675000Y-127650000D01*
G75*
G02*
X132600000Y-127575000I0J75000D01*
G01*
X132600000Y-126250000D01*
G75*
G02*
X132675000Y-126175000I75000J0D01*
G01*
X132825000Y-126175000D01*
G75*
G02*
X132900000Y-126250000I0J-75000D01*
G01*
X132900000Y-127575000D01*
G75*
G02*
X132825000Y-127650000I-75000J0D01*
G01*
G37*
G36*
G01*
X133325000Y-127650000D02*
X133175000Y-127650000D01*
G75*
G02*
X133100000Y-127575000I0J75000D01*
G01*
X133100000Y-126250000D01*
G75*
G02*
X133175000Y-126175000I75000J0D01*
G01*
X133325000Y-126175000D01*
G75*
G02*
X133400000Y-126250000I0J-75000D01*
G01*
X133400000Y-127575000D01*
G75*
G02*
X133325000Y-127650000I-75000J0D01*
G01*
G37*
G36*
G01*
X133825000Y-127650000D02*
X133675000Y-127650000D01*
G75*
G02*
X133600000Y-127575000I0J75000D01*
G01*
X133600000Y-126250000D01*
G75*
G02*
X133675000Y-126175000I75000J0D01*
G01*
X133825000Y-126175000D01*
G75*
G02*
X133900000Y-126250000I0J-75000D01*
G01*
X133900000Y-127575000D01*
G75*
G02*
X133825000Y-127650000I-75000J0D01*
G01*
G37*
G36*
G01*
X134325000Y-127650000D02*
X134175000Y-127650000D01*
G75*
G02*
X134100000Y-127575000I0J75000D01*
G01*
X134100000Y-126250000D01*
G75*
G02*
X134175000Y-126175000I75000J0D01*
G01*
X134325000Y-126175000D01*
G75*
G02*
X134400000Y-126250000I0J-75000D01*
G01*
X134400000Y-127575000D01*
G75*
G02*
X134325000Y-127650000I-75000J0D01*
G01*
G37*
G36*
G01*
X134825000Y-127650000D02*
X134675000Y-127650000D01*
G75*
G02*
X134600000Y-127575000I0J75000D01*
G01*
X134600000Y-126250000D01*
G75*
G02*
X134675000Y-126175000I75000J0D01*
G01*
X134825000Y-126175000D01*
G75*
G02*
X134900000Y-126250000I0J-75000D01*
G01*
X134900000Y-127575000D01*
G75*
G02*
X134825000Y-127650000I-75000J0D01*
G01*
G37*
G36*
G01*
X135325000Y-127650000D02*
X135175000Y-127650000D01*
G75*
G02*
X135100000Y-127575000I0J75000D01*
G01*
X135100000Y-126250000D01*
G75*
G02*
X135175000Y-126175000I75000J0D01*
G01*
X135325000Y-126175000D01*
G75*
G02*
X135400000Y-126250000I0J-75000D01*
G01*
X135400000Y-127575000D01*
G75*
G02*
X135325000Y-127650000I-75000J0D01*
G01*
G37*
G36*
G01*
X135825000Y-127650000D02*
X135675000Y-127650000D01*
G75*
G02*
X135600000Y-127575000I0J75000D01*
G01*
X135600000Y-126250000D01*
G75*
G02*
X135675000Y-126175000I75000J0D01*
G01*
X135825000Y-126175000D01*
G75*
G02*
X135900000Y-126250000I0J-75000D01*
G01*
X135900000Y-127575000D01*
G75*
G02*
X135825000Y-127650000I-75000J0D01*
G01*
G37*
G36*
G01*
X136325000Y-127650000D02*
X136175000Y-127650000D01*
G75*
G02*
X136100000Y-127575000I0J75000D01*
G01*
X136100000Y-126250000D01*
G75*
G02*
X136175000Y-126175000I75000J0D01*
G01*
X136325000Y-126175000D01*
G75*
G02*
X136400000Y-126250000I0J-75000D01*
G01*
X136400000Y-127575000D01*
G75*
G02*
X136325000Y-127650000I-75000J0D01*
G01*
G37*
G36*
G01*
X136825000Y-127650000D02*
X136675000Y-127650000D01*
G75*
G02*
X136600000Y-127575000I0J75000D01*
G01*
X136600000Y-126250000D01*
G75*
G02*
X136675000Y-126175000I75000J0D01*
G01*
X136825000Y-126175000D01*
G75*
G02*
X136900000Y-126250000I0J-75000D01*
G01*
X136900000Y-127575000D01*
G75*
G02*
X136825000Y-127650000I-75000J0D01*
G01*
G37*
G36*
G01*
X137325000Y-127650000D02*
X137175000Y-127650000D01*
G75*
G02*
X137100000Y-127575000I0J75000D01*
G01*
X137100000Y-126250000D01*
G75*
G02*
X137175000Y-126175000I75000J0D01*
G01*
X137325000Y-126175000D01*
G75*
G02*
X137400000Y-126250000I0J-75000D01*
G01*
X137400000Y-127575000D01*
G75*
G02*
X137325000Y-127650000I-75000J0D01*
G01*
G37*
G36*
G01*
X137825000Y-127650000D02*
X137675000Y-127650000D01*
G75*
G02*
X137600000Y-127575000I0J75000D01*
G01*
X137600000Y-126250000D01*
G75*
G02*
X137675000Y-126175000I75000J0D01*
G01*
X137825000Y-126175000D01*
G75*
G02*
X137900000Y-126250000I0J-75000D01*
G01*
X137900000Y-127575000D01*
G75*
G02*
X137825000Y-127650000I-75000J0D01*
G01*
G37*
G36*
G01*
X139825000Y-125650000D02*
X138500000Y-125650000D01*
G75*
G02*
X138425000Y-125575000I0J75000D01*
G01*
X138425000Y-125425000D01*
G75*
G02*
X138500000Y-125350000I75000J0D01*
G01*
X139825000Y-125350000D01*
G75*
G02*
X139900000Y-125425000I0J-75000D01*
G01*
X139900000Y-125575000D01*
G75*
G02*
X139825000Y-125650000I-75000J0D01*
G01*
G37*
G36*
G01*
X139825000Y-125150000D02*
X138500000Y-125150000D01*
G75*
G02*
X138425000Y-125075000I0J75000D01*
G01*
X138425000Y-124925000D01*
G75*
G02*
X138500000Y-124850000I75000J0D01*
G01*
X139825000Y-124850000D01*
G75*
G02*
X139900000Y-124925000I0J-75000D01*
G01*
X139900000Y-125075000D01*
G75*
G02*
X139825000Y-125150000I-75000J0D01*
G01*
G37*
G36*
G01*
X139825000Y-124650000D02*
X138500000Y-124650000D01*
G75*
G02*
X138425000Y-124575000I0J75000D01*
G01*
X138425000Y-124425000D01*
G75*
G02*
X138500000Y-124350000I75000J0D01*
G01*
X139825000Y-124350000D01*
G75*
G02*
X139900000Y-124425000I0J-75000D01*
G01*
X139900000Y-124575000D01*
G75*
G02*
X139825000Y-124650000I-75000J0D01*
G01*
G37*
G36*
G01*
X139825000Y-124150000D02*
X138500000Y-124150000D01*
G75*
G02*
X138425000Y-124075000I0J75000D01*
G01*
X138425000Y-123925000D01*
G75*
G02*
X138500000Y-123850000I75000J0D01*
G01*
X139825000Y-123850000D01*
G75*
G02*
X139900000Y-123925000I0J-75000D01*
G01*
X139900000Y-124075000D01*
G75*
G02*
X139825000Y-124150000I-75000J0D01*
G01*
G37*
G36*
G01*
X139825000Y-123650000D02*
X138500000Y-123650000D01*
G75*
G02*
X138425000Y-123575000I0J75000D01*
G01*
X138425000Y-123425000D01*
G75*
G02*
X138500000Y-123350000I75000J0D01*
G01*
X139825000Y-123350000D01*
G75*
G02*
X139900000Y-123425000I0J-75000D01*
G01*
X139900000Y-123575000D01*
G75*
G02*
X139825000Y-123650000I-75000J0D01*
G01*
G37*
G36*
G01*
X139825000Y-123150000D02*
X138500000Y-123150000D01*
G75*
G02*
X138425000Y-123075000I0J75000D01*
G01*
X138425000Y-122925000D01*
G75*
G02*
X138500000Y-122850000I75000J0D01*
G01*
X139825000Y-122850000D01*
G75*
G02*
X139900000Y-122925000I0J-75000D01*
G01*
X139900000Y-123075000D01*
G75*
G02*
X139825000Y-123150000I-75000J0D01*
G01*
G37*
G36*
G01*
X139825000Y-122650000D02*
X138500000Y-122650000D01*
G75*
G02*
X138425000Y-122575000I0J75000D01*
G01*
X138425000Y-122425000D01*
G75*
G02*
X138500000Y-122350000I75000J0D01*
G01*
X139825000Y-122350000D01*
G75*
G02*
X139900000Y-122425000I0J-75000D01*
G01*
X139900000Y-122575000D01*
G75*
G02*
X139825000Y-122650000I-75000J0D01*
G01*
G37*
G36*
G01*
X139825000Y-122150000D02*
X138500000Y-122150000D01*
G75*
G02*
X138425000Y-122075000I0J75000D01*
G01*
X138425000Y-121925000D01*
G75*
G02*
X138500000Y-121850000I75000J0D01*
G01*
X139825000Y-121850000D01*
G75*
G02*
X139900000Y-121925000I0J-75000D01*
G01*
X139900000Y-122075000D01*
G75*
G02*
X139825000Y-122150000I-75000J0D01*
G01*
G37*
G36*
G01*
X139825000Y-121650000D02*
X138500000Y-121650000D01*
G75*
G02*
X138425000Y-121575000I0J75000D01*
G01*
X138425000Y-121425000D01*
G75*
G02*
X138500000Y-121350000I75000J0D01*
G01*
X139825000Y-121350000D01*
G75*
G02*
X139900000Y-121425000I0J-75000D01*
G01*
X139900000Y-121575000D01*
G75*
G02*
X139825000Y-121650000I-75000J0D01*
G01*
G37*
G36*
G01*
X139825000Y-121150000D02*
X138500000Y-121150000D01*
G75*
G02*
X138425000Y-121075000I0J75000D01*
G01*
X138425000Y-120925000D01*
G75*
G02*
X138500000Y-120850000I75000J0D01*
G01*
X139825000Y-120850000D01*
G75*
G02*
X139900000Y-120925000I0J-75000D01*
G01*
X139900000Y-121075000D01*
G75*
G02*
X139825000Y-121150000I-75000J0D01*
G01*
G37*
G36*
G01*
X139825000Y-120650000D02*
X138500000Y-120650000D01*
G75*
G02*
X138425000Y-120575000I0J75000D01*
G01*
X138425000Y-120425000D01*
G75*
G02*
X138500000Y-120350000I75000J0D01*
G01*
X139825000Y-120350000D01*
G75*
G02*
X139900000Y-120425000I0J-75000D01*
G01*
X139900000Y-120575000D01*
G75*
G02*
X139825000Y-120650000I-75000J0D01*
G01*
G37*
G36*
G01*
X139825000Y-120150000D02*
X138500000Y-120150000D01*
G75*
G02*
X138425000Y-120075000I0J75000D01*
G01*
X138425000Y-119925000D01*
G75*
G02*
X138500000Y-119850000I75000J0D01*
G01*
X139825000Y-119850000D01*
G75*
G02*
X139900000Y-119925000I0J-75000D01*
G01*
X139900000Y-120075000D01*
G75*
G02*
X139825000Y-120150000I-75000J0D01*
G01*
G37*
G36*
G01*
X137825000Y-119325000D02*
X137675000Y-119325000D01*
G75*
G02*
X137600000Y-119250000I0J75000D01*
G01*
X137600000Y-117925000D01*
G75*
G02*
X137675000Y-117850000I75000J0D01*
G01*
X137825000Y-117850000D01*
G75*
G02*
X137900000Y-117925000I0J-75000D01*
G01*
X137900000Y-119250000D01*
G75*
G02*
X137825000Y-119325000I-75000J0D01*
G01*
G37*
G36*
G01*
X137325000Y-119325000D02*
X137175000Y-119325000D01*
G75*
G02*
X137100000Y-119250000I0J75000D01*
G01*
X137100000Y-117925000D01*
G75*
G02*
X137175000Y-117850000I75000J0D01*
G01*
X137325000Y-117850000D01*
G75*
G02*
X137400000Y-117925000I0J-75000D01*
G01*
X137400000Y-119250000D01*
G75*
G02*
X137325000Y-119325000I-75000J0D01*
G01*
G37*
G36*
G01*
X136825000Y-119325000D02*
X136675000Y-119325000D01*
G75*
G02*
X136600000Y-119250000I0J75000D01*
G01*
X136600000Y-117925000D01*
G75*
G02*
X136675000Y-117850000I75000J0D01*
G01*
X136825000Y-117850000D01*
G75*
G02*
X136900000Y-117925000I0J-75000D01*
G01*
X136900000Y-119250000D01*
G75*
G02*
X136825000Y-119325000I-75000J0D01*
G01*
G37*
G36*
G01*
X136325000Y-119325000D02*
X136175000Y-119325000D01*
G75*
G02*
X136100000Y-119250000I0J75000D01*
G01*
X136100000Y-117925000D01*
G75*
G02*
X136175000Y-117850000I75000J0D01*
G01*
X136325000Y-117850000D01*
G75*
G02*
X136400000Y-117925000I0J-75000D01*
G01*
X136400000Y-119250000D01*
G75*
G02*
X136325000Y-119325000I-75000J0D01*
G01*
G37*
G36*
G01*
X135825000Y-119325000D02*
X135675000Y-119325000D01*
G75*
G02*
X135600000Y-119250000I0J75000D01*
G01*
X135600000Y-117925000D01*
G75*
G02*
X135675000Y-117850000I75000J0D01*
G01*
X135825000Y-117850000D01*
G75*
G02*
X135900000Y-117925000I0J-75000D01*
G01*
X135900000Y-119250000D01*
G75*
G02*
X135825000Y-119325000I-75000J0D01*
G01*
G37*
G36*
G01*
X135325000Y-119325000D02*
X135175000Y-119325000D01*
G75*
G02*
X135100000Y-119250000I0J75000D01*
G01*
X135100000Y-117925000D01*
G75*
G02*
X135175000Y-117850000I75000J0D01*
G01*
X135325000Y-117850000D01*
G75*
G02*
X135400000Y-117925000I0J-75000D01*
G01*
X135400000Y-119250000D01*
G75*
G02*
X135325000Y-119325000I-75000J0D01*
G01*
G37*
G36*
G01*
X134825000Y-119325000D02*
X134675000Y-119325000D01*
G75*
G02*
X134600000Y-119250000I0J75000D01*
G01*
X134600000Y-117925000D01*
G75*
G02*
X134675000Y-117850000I75000J0D01*
G01*
X134825000Y-117850000D01*
G75*
G02*
X134900000Y-117925000I0J-75000D01*
G01*
X134900000Y-119250000D01*
G75*
G02*
X134825000Y-119325000I-75000J0D01*
G01*
G37*
G36*
G01*
X134325000Y-119325000D02*
X134175000Y-119325000D01*
G75*
G02*
X134100000Y-119250000I0J75000D01*
G01*
X134100000Y-117925000D01*
G75*
G02*
X134175000Y-117850000I75000J0D01*
G01*
X134325000Y-117850000D01*
G75*
G02*
X134400000Y-117925000I0J-75000D01*
G01*
X134400000Y-119250000D01*
G75*
G02*
X134325000Y-119325000I-75000J0D01*
G01*
G37*
G36*
G01*
X133825000Y-119325000D02*
X133675000Y-119325000D01*
G75*
G02*
X133600000Y-119250000I0J75000D01*
G01*
X133600000Y-117925000D01*
G75*
G02*
X133675000Y-117850000I75000J0D01*
G01*
X133825000Y-117850000D01*
G75*
G02*
X133900000Y-117925000I0J-75000D01*
G01*
X133900000Y-119250000D01*
G75*
G02*
X133825000Y-119325000I-75000J0D01*
G01*
G37*
G36*
G01*
X133325000Y-119325000D02*
X133175000Y-119325000D01*
G75*
G02*
X133100000Y-119250000I0J75000D01*
G01*
X133100000Y-117925000D01*
G75*
G02*
X133175000Y-117850000I75000J0D01*
G01*
X133325000Y-117850000D01*
G75*
G02*
X133400000Y-117925000I0J-75000D01*
G01*
X133400000Y-119250000D01*
G75*
G02*
X133325000Y-119325000I-75000J0D01*
G01*
G37*
G36*
G01*
X132825000Y-119325000D02*
X132675000Y-119325000D01*
G75*
G02*
X132600000Y-119250000I0J75000D01*
G01*
X132600000Y-117925000D01*
G75*
G02*
X132675000Y-117850000I75000J0D01*
G01*
X132825000Y-117850000D01*
G75*
G02*
X132900000Y-117925000I0J-75000D01*
G01*
X132900000Y-119250000D01*
G75*
G02*
X132825000Y-119325000I-75000J0D01*
G01*
G37*
G36*
G01*
X132325000Y-119325000D02*
X132175000Y-119325000D01*
G75*
G02*
X132100000Y-119250000I0J75000D01*
G01*
X132100000Y-117925000D01*
G75*
G02*
X132175000Y-117850000I75000J0D01*
G01*
X132325000Y-117850000D01*
G75*
G02*
X132400000Y-117925000I0J-75000D01*
G01*
X132400000Y-119250000D01*
G75*
G02*
X132325000Y-119325000I-75000J0D01*
G01*
G37*
G36*
G01*
X131500000Y-120150000D02*
X130175000Y-120150000D01*
G75*
G02*
X130100000Y-120075000I0J75000D01*
G01*
X130100000Y-119925000D01*
G75*
G02*
X130175000Y-119850000I75000J0D01*
G01*
X131500000Y-119850000D01*
G75*
G02*
X131575000Y-119925000I0J-75000D01*
G01*
X131575000Y-120075000D01*
G75*
G02*
X131500000Y-120150000I-75000J0D01*
G01*
G37*
G36*
G01*
X131500000Y-120650000D02*
X130175000Y-120650000D01*
G75*
G02*
X130100000Y-120575000I0J75000D01*
G01*
X130100000Y-120425000D01*
G75*
G02*
X130175000Y-120350000I75000J0D01*
G01*
X131500000Y-120350000D01*
G75*
G02*
X131575000Y-120425000I0J-75000D01*
G01*
X131575000Y-120575000D01*
G75*
G02*
X131500000Y-120650000I-75000J0D01*
G01*
G37*
G36*
G01*
X131500000Y-121150000D02*
X130175000Y-121150000D01*
G75*
G02*
X130100000Y-121075000I0J75000D01*
G01*
X130100000Y-120925000D01*
G75*
G02*
X130175000Y-120850000I75000J0D01*
G01*
X131500000Y-120850000D01*
G75*
G02*
X131575000Y-120925000I0J-75000D01*
G01*
X131575000Y-121075000D01*
G75*
G02*
X131500000Y-121150000I-75000J0D01*
G01*
G37*
G36*
G01*
X131500000Y-121650000D02*
X130175000Y-121650000D01*
G75*
G02*
X130100000Y-121575000I0J75000D01*
G01*
X130100000Y-121425000D01*
G75*
G02*
X130175000Y-121350000I75000J0D01*
G01*
X131500000Y-121350000D01*
G75*
G02*
X131575000Y-121425000I0J-75000D01*
G01*
X131575000Y-121575000D01*
G75*
G02*
X131500000Y-121650000I-75000J0D01*
G01*
G37*
G36*
G01*
X131500000Y-122150000D02*
X130175000Y-122150000D01*
G75*
G02*
X130100000Y-122075000I0J75000D01*
G01*
X130100000Y-121925000D01*
G75*
G02*
X130175000Y-121850000I75000J0D01*
G01*
X131500000Y-121850000D01*
G75*
G02*
X131575000Y-121925000I0J-75000D01*
G01*
X131575000Y-122075000D01*
G75*
G02*
X131500000Y-122150000I-75000J0D01*
G01*
G37*
G36*
G01*
X131500000Y-122650000D02*
X130175000Y-122650000D01*
G75*
G02*
X130100000Y-122575000I0J75000D01*
G01*
X130100000Y-122425000D01*
G75*
G02*
X130175000Y-122350000I75000J0D01*
G01*
X131500000Y-122350000D01*
G75*
G02*
X131575000Y-122425000I0J-75000D01*
G01*
X131575000Y-122575000D01*
G75*
G02*
X131500000Y-122650000I-75000J0D01*
G01*
G37*
G36*
G01*
X131500000Y-123150000D02*
X130175000Y-123150000D01*
G75*
G02*
X130100000Y-123075000I0J75000D01*
G01*
X130100000Y-122925000D01*
G75*
G02*
X130175000Y-122850000I75000J0D01*
G01*
X131500000Y-122850000D01*
G75*
G02*
X131575000Y-122925000I0J-75000D01*
G01*
X131575000Y-123075000D01*
G75*
G02*
X131500000Y-123150000I-75000J0D01*
G01*
G37*
G36*
G01*
X131500000Y-123650000D02*
X130175000Y-123650000D01*
G75*
G02*
X130100000Y-123575000I0J75000D01*
G01*
X130100000Y-123425000D01*
G75*
G02*
X130175000Y-123350000I75000J0D01*
G01*
X131500000Y-123350000D01*
G75*
G02*
X131575000Y-123425000I0J-75000D01*
G01*
X131575000Y-123575000D01*
G75*
G02*
X131500000Y-123650000I-75000J0D01*
G01*
G37*
G36*
G01*
X131500000Y-124150000D02*
X130175000Y-124150000D01*
G75*
G02*
X130100000Y-124075000I0J75000D01*
G01*
X130100000Y-123925000D01*
G75*
G02*
X130175000Y-123850000I75000J0D01*
G01*
X131500000Y-123850000D01*
G75*
G02*
X131575000Y-123925000I0J-75000D01*
G01*
X131575000Y-124075000D01*
G75*
G02*
X131500000Y-124150000I-75000J0D01*
G01*
G37*
G36*
G01*
X131500000Y-124650000D02*
X130175000Y-124650000D01*
G75*
G02*
X130100000Y-124575000I0J75000D01*
G01*
X130100000Y-124425000D01*
G75*
G02*
X130175000Y-124350000I75000J0D01*
G01*
X131500000Y-124350000D01*
G75*
G02*
X131575000Y-124425000I0J-75000D01*
G01*
X131575000Y-124575000D01*
G75*
G02*
X131500000Y-124650000I-75000J0D01*
G01*
G37*
G36*
G01*
X131500000Y-125150000D02*
X130175000Y-125150000D01*
G75*
G02*
X130100000Y-125075000I0J75000D01*
G01*
X130100000Y-124925000D01*
G75*
G02*
X130175000Y-124850000I75000J0D01*
G01*
X131500000Y-124850000D01*
G75*
G02*
X131575000Y-124925000I0J-75000D01*
G01*
X131575000Y-125075000D01*
G75*
G02*
X131500000Y-125150000I-75000J0D01*
G01*
G37*
G36*
G01*
X131500000Y-125650000D02*
X130175000Y-125650000D01*
G75*
G02*
X130100000Y-125575000I0J75000D01*
G01*
X130100000Y-125425000D01*
G75*
G02*
X130175000Y-125350000I75000J0D01*
G01*
X131500000Y-125350000D01*
G75*
G02*
X131575000Y-125425000I0J-75000D01*
G01*
X131575000Y-125575000D01*
G75*
G02*
X131500000Y-125650000I-75000J0D01*
G01*
G37*
%TD*%
D11*
%TO.C,U2*%
X139800000Y-113500000D03*
X139800000Y-112500000D03*
X139800000Y-111500000D03*
X139800000Y-110500000D03*
X139800000Y-109500000D03*
X139800000Y-108500000D03*
X139800000Y-107500000D03*
X139800000Y-106500000D03*
X139800000Y-105500000D03*
X139800000Y-104500000D03*
X139800000Y-103500000D03*
X139800000Y-102500000D03*
X139800000Y-101350000D03*
X130200000Y-101350000D03*
X130200000Y-102500000D03*
X130200000Y-103500000D03*
X130200000Y-104500000D03*
X130200000Y-105500000D03*
X130200000Y-106500000D03*
X130200000Y-107500000D03*
X130200000Y-108500000D03*
X130200000Y-109500000D03*
X130200000Y-110500000D03*
X130200000Y-111500000D03*
X130200000Y-112500000D03*
X130200000Y-113500000D03*
D12*
X133000000Y-114300000D03*
X134000000Y-114300000D03*
X135000000Y-114300000D03*
X136000000Y-114300000D03*
X137000000Y-114300000D03*
%TD*%
D13*
%TO.C,BT1*%
X153175000Y-115600000D03*
X153175000Y-102400000D03*
%TD*%
D14*
%TO.C,TP2*%
X131025000Y-115550000D03*
%TD*%
%TO.C,R8*%
G36*
G01*
X112500000Y-111262500D02*
X112500000Y-111737500D01*
G75*
G02*
X112262500Y-111975000I-237500J0D01*
G01*
X111687500Y-111975000D01*
G75*
G02*
X111450000Y-111737500I0J237500D01*
G01*
X111450000Y-111262500D01*
G75*
G02*
X111687500Y-111025000I237500J0D01*
G01*
X112262500Y-111025000D01*
G75*
G02*
X112500000Y-111262500I0J-237500D01*
G01*
G37*
G36*
G01*
X114250000Y-111262500D02*
X114250000Y-111737500D01*
G75*
G02*
X114012500Y-111975000I-237500J0D01*
G01*
X113437500Y-111975000D01*
G75*
G02*
X113200000Y-111737500I0J237500D01*
G01*
X113200000Y-111262500D01*
G75*
G02*
X113437500Y-111025000I237500J0D01*
G01*
X114012500Y-111025000D01*
G75*
G02*
X114250000Y-111262500I0J-237500D01*
G01*
G37*
%TD*%
%TO.C,R6*%
G36*
G01*
X107812500Y-104650000D02*
X108287500Y-104650000D01*
G75*
G02*
X108525000Y-104887500I0J-237500D01*
G01*
X108525000Y-105462500D01*
G75*
G02*
X108287500Y-105700000I-237500J0D01*
G01*
X107812500Y-105700000D01*
G75*
G02*
X107575000Y-105462500I0J237500D01*
G01*
X107575000Y-104887500D01*
G75*
G02*
X107812500Y-104650000I237500J0D01*
G01*
G37*
G36*
G01*
X107812500Y-102900000D02*
X108287500Y-102900000D01*
G75*
G02*
X108525000Y-103137500I0J-237500D01*
G01*
X108525000Y-103712500D01*
G75*
G02*
X108287500Y-103950000I-237500J0D01*
G01*
X107812500Y-103950000D01*
G75*
G02*
X107575000Y-103712500I0J237500D01*
G01*
X107575000Y-103137500D01*
G75*
G02*
X107812500Y-102900000I237500J0D01*
G01*
G37*
%TD*%
%TO.C,R1*%
G36*
G01*
X126862500Y-104300000D02*
X127337500Y-104300000D01*
G75*
G02*
X127575000Y-104537500I0J-237500D01*
G01*
X127575000Y-105112500D01*
G75*
G02*
X127337500Y-105350000I-237500J0D01*
G01*
X126862500Y-105350000D01*
G75*
G02*
X126625000Y-105112500I0J237500D01*
G01*
X126625000Y-104537500D01*
G75*
G02*
X126862500Y-104300000I237500J0D01*
G01*
G37*
G36*
G01*
X126862500Y-102550000D02*
X127337500Y-102550000D01*
G75*
G02*
X127575000Y-102787500I0J-237500D01*
G01*
X127575000Y-103362500D01*
G75*
G02*
X127337500Y-103600000I-237500J0D01*
G01*
X126862500Y-103600000D01*
G75*
G02*
X126625000Y-103362500I0J237500D01*
G01*
X126625000Y-102787500D01*
G75*
G02*
X126862500Y-102550000I237500J0D01*
G01*
G37*
%TD*%
%TO.C,C2*%
G36*
G01*
X149925001Y-122500000D02*
X149024999Y-122500000D01*
G75*
G02*
X148775000Y-122250001I0J249999D01*
G01*
X148775000Y-121599999D01*
G75*
G02*
X149024999Y-121350000I249999J0D01*
G01*
X149925001Y-121350000D01*
G75*
G02*
X150175000Y-121599999I0J-249999D01*
G01*
X150175000Y-122250001D01*
G75*
G02*
X149925001Y-122500000I-249999J0D01*
G01*
G37*
G36*
G01*
X149925001Y-124550000D02*
X149024999Y-124550000D01*
G75*
G02*
X148775000Y-124300001I0J249999D01*
G01*
X148775000Y-123649999D01*
G75*
G02*
X149024999Y-123400000I249999J0D01*
G01*
X149925001Y-123400000D01*
G75*
G02*
X150175000Y-123649999I0J-249999D01*
G01*
X150175000Y-124300001D01*
G75*
G02*
X149925001Y-124550000I-249999J0D01*
G01*
G37*
%TD*%
D15*
%TO.C,J4*%
X124400000Y-111860000D03*
X124400000Y-114400000D03*
X124400000Y-116940000D03*
X124400000Y-119480000D03*
X124400000Y-122020000D03*
X124400000Y-124560000D03*
D16*
X124400000Y-127100000D03*
%TD*%
%TO.C,C3*%
G36*
G01*
X143987500Y-104900000D02*
X143512500Y-104900000D01*
G75*
G02*
X143275000Y-104662500I0J237500D01*
G01*
X143275000Y-104087500D01*
G75*
G02*
X143512500Y-103850000I237500J0D01*
G01*
X143987500Y-103850000D01*
G75*
G02*
X144225000Y-104087500I0J-237500D01*
G01*
X144225000Y-104662500D01*
G75*
G02*
X143987500Y-104900000I-237500J0D01*
G01*
G37*
G36*
G01*
X143987500Y-106650000D02*
X143512500Y-106650000D01*
G75*
G02*
X143275000Y-106412500I0J237500D01*
G01*
X143275000Y-105837500D01*
G75*
G02*
X143512500Y-105600000I237500J0D01*
G01*
X143987500Y-105600000D01*
G75*
G02*
X144225000Y-105837500I0J-237500D01*
G01*
X144225000Y-106412500D01*
G75*
G02*
X143987500Y-106650000I-237500J0D01*
G01*
G37*
%TD*%
%TO.C,C5*%
G36*
G01*
X145012500Y-107350000D02*
X145487500Y-107350000D01*
G75*
G02*
X145725000Y-107587500I0J-237500D01*
G01*
X145725000Y-108162500D01*
G75*
G02*
X145487500Y-108400000I-237500J0D01*
G01*
X145012500Y-108400000D01*
G75*
G02*
X144775000Y-108162500I0J237500D01*
G01*
X144775000Y-107587500D01*
G75*
G02*
X145012500Y-107350000I237500J0D01*
G01*
G37*
G36*
G01*
X145012500Y-109100000D02*
X145487500Y-109100000D01*
G75*
G02*
X145725000Y-109337500I0J-237500D01*
G01*
X145725000Y-109912500D01*
G75*
G02*
X145487500Y-110150000I-237500J0D01*
G01*
X145012500Y-110150000D01*
G75*
G02*
X144775000Y-109912500I0J237500D01*
G01*
X144775000Y-109337500D01*
G75*
G02*
X145012500Y-109100000I237500J0D01*
G01*
G37*
%TD*%
%TO.C,C6*%
G36*
G01*
X145487500Y-106650000D02*
X145012500Y-106650000D01*
G75*
G02*
X144775000Y-106412500I0J237500D01*
G01*
X144775000Y-105837500D01*
G75*
G02*
X145012500Y-105600000I237500J0D01*
G01*
X145487500Y-105600000D01*
G75*
G02*
X145725000Y-105837500I0J-237500D01*
G01*
X145725000Y-106412500D01*
G75*
G02*
X145487500Y-106650000I-237500J0D01*
G01*
G37*
G36*
G01*
X145487500Y-104900000D02*
X145012500Y-104900000D01*
G75*
G02*
X144775000Y-104662500I0J237500D01*
G01*
X144775000Y-104087500D01*
G75*
G02*
X145012500Y-103850000I237500J0D01*
G01*
X145487500Y-103850000D01*
G75*
G02*
X145725000Y-104087500I0J-237500D01*
G01*
X145725000Y-104662500D01*
G75*
G02*
X145487500Y-104900000I-237500J0D01*
G01*
G37*
%TD*%
%TO.C,C7*%
G36*
G01*
X143512500Y-107350000D02*
X143987500Y-107350000D01*
G75*
G02*
X144225000Y-107587500I0J-237500D01*
G01*
X144225000Y-108162500D01*
G75*
G02*
X143987500Y-108400000I-237500J0D01*
G01*
X143512500Y-108400000D01*
G75*
G02*
X143275000Y-108162500I0J237500D01*
G01*
X143275000Y-107587500D01*
G75*
G02*
X143512500Y-107350000I237500J0D01*
G01*
G37*
G36*
G01*
X143512500Y-109100000D02*
X143987500Y-109100000D01*
G75*
G02*
X144225000Y-109337500I0J-237500D01*
G01*
X144225000Y-109912500D01*
G75*
G02*
X143987500Y-110150000I-237500J0D01*
G01*
X143512500Y-110150000D01*
G75*
G02*
X143275000Y-109912500I0J237500D01*
G01*
X143275000Y-109337500D01*
G75*
G02*
X143512500Y-109100000I237500J0D01*
G01*
G37*
%TD*%
%TO.C,C10*%
G36*
G01*
X135950000Y-128512500D02*
X135950000Y-128987500D01*
G75*
G02*
X135712500Y-129225000I-237500J0D01*
G01*
X135137500Y-129225000D01*
G75*
G02*
X134900000Y-128987500I0J237500D01*
G01*
X134900000Y-128512500D01*
G75*
G02*
X135137500Y-128275000I237500J0D01*
G01*
X135712500Y-128275000D01*
G75*
G02*
X135950000Y-128512500I0J-237500D01*
G01*
G37*
G36*
G01*
X137700000Y-128512500D02*
X137700000Y-128987500D01*
G75*
G02*
X137462500Y-129225000I-237500J0D01*
G01*
X136887500Y-129225000D01*
G75*
G02*
X136650000Y-128987500I0J237500D01*
G01*
X136650000Y-128512500D01*
G75*
G02*
X136887500Y-128275000I237500J0D01*
G01*
X137462500Y-128275000D01*
G75*
G02*
X137700000Y-128512500I0J-237500D01*
G01*
G37*
%TD*%
%TO.C,C11*%
G36*
G01*
X129237500Y-126200000D02*
X128762500Y-126200000D01*
G75*
G02*
X128525000Y-125962500I0J237500D01*
G01*
X128525000Y-125387500D01*
G75*
G02*
X128762500Y-125150000I237500J0D01*
G01*
X129237500Y-125150000D01*
G75*
G02*
X129475000Y-125387500I0J-237500D01*
G01*
X129475000Y-125962500D01*
G75*
G02*
X129237500Y-126200000I-237500J0D01*
G01*
G37*
G36*
G01*
X129237500Y-127950000D02*
X128762500Y-127950000D01*
G75*
G02*
X128525000Y-127712500I0J237500D01*
G01*
X128525000Y-127137500D01*
G75*
G02*
X128762500Y-126900000I237500J0D01*
G01*
X129237500Y-126900000D01*
G75*
G02*
X129475000Y-127137500I0J-237500D01*
G01*
X129475000Y-127712500D01*
G75*
G02*
X129237500Y-127950000I-237500J0D01*
G01*
G37*
%TD*%
D17*
%TO.C,D2*%
X107350000Y-124525000D03*
X107350000Y-128025000D03*
%TD*%
%TO.C,D3*%
G36*
G01*
X117462500Y-124200000D02*
X117937500Y-124200000D01*
G75*
G02*
X118175000Y-124437500I0J-237500D01*
G01*
X118175000Y-125012500D01*
G75*
G02*
X117937500Y-125250000I-237500J0D01*
G01*
X117462500Y-125250000D01*
G75*
G02*
X117225000Y-125012500I0J237500D01*
G01*
X117225000Y-124437500D01*
G75*
G02*
X117462500Y-124200000I237500J0D01*
G01*
G37*
G36*
G01*
X117462500Y-125950000D02*
X117937500Y-125950000D01*
G75*
G02*
X118175000Y-126187500I0J-237500D01*
G01*
X118175000Y-126762500D01*
G75*
G02*
X117937500Y-127000000I-237500J0D01*
G01*
X117462500Y-127000000D01*
G75*
G02*
X117225000Y-126762500I0J237500D01*
G01*
X117225000Y-126187500D01*
G75*
G02*
X117462500Y-125950000I237500J0D01*
G01*
G37*
%TD*%
%TO.C,D4*%
G36*
G01*
X112112500Y-125900000D02*
X112587500Y-125900000D01*
G75*
G02*
X112825000Y-126137500I0J-237500D01*
G01*
X112825000Y-126712500D01*
G75*
G02*
X112587500Y-126950000I-237500J0D01*
G01*
X112112500Y-126950000D01*
G75*
G02*
X111875000Y-126712500I0J237500D01*
G01*
X111875000Y-126137500D01*
G75*
G02*
X112112500Y-125900000I237500J0D01*
G01*
G37*
G36*
G01*
X112112500Y-124150000D02*
X112587500Y-124150000D01*
G75*
G02*
X112825000Y-124387500I0J-237500D01*
G01*
X112825000Y-124962500D01*
G75*
G02*
X112587500Y-125200000I-237500J0D01*
G01*
X112112500Y-125200000D01*
G75*
G02*
X111875000Y-124962500I0J237500D01*
G01*
X111875000Y-124387500D01*
G75*
G02*
X112112500Y-124150000I237500J0D01*
G01*
G37*
%TD*%
D18*
%TO.C,J1*%
X108150000Y-120715000D03*
X108150000Y-116905000D03*
X108150000Y-113095000D03*
X108150000Y-109285000D03*
%TD*%
%TO.C,J2*%
X161850000Y-120715000D03*
X161850000Y-116905000D03*
X161850000Y-113095000D03*
X161850000Y-109285000D03*
%TD*%
%TO.C,R3*%
G36*
G01*
X145775000Y-120112500D02*
X145775000Y-119637500D01*
G75*
G02*
X146012500Y-119400000I237500J0D01*
G01*
X146587500Y-119400000D01*
G75*
G02*
X146825000Y-119637500I0J-237500D01*
G01*
X146825000Y-120112500D01*
G75*
G02*
X146587500Y-120350000I-237500J0D01*
G01*
X146012500Y-120350000D01*
G75*
G02*
X145775000Y-120112500I0J237500D01*
G01*
G37*
G36*
G01*
X144025000Y-120112500D02*
X144025000Y-119637500D01*
G75*
G02*
X144262500Y-119400000I237500J0D01*
G01*
X144837500Y-119400000D01*
G75*
G02*
X145075000Y-119637500I0J-237500D01*
G01*
X145075000Y-120112500D01*
G75*
G02*
X144837500Y-120350000I-237500J0D01*
G01*
X144262500Y-120350000D01*
G75*
G02*
X144025000Y-120112500I0J237500D01*
G01*
G37*
%TD*%
%TO.C,R7*%
G36*
G01*
X118650000Y-110999999D02*
X118650000Y-111900001D01*
G75*
G02*
X118400001Y-112150000I-249999J0D01*
G01*
X117749999Y-112150000D01*
G75*
G02*
X117500000Y-111900001I0J249999D01*
G01*
X117500000Y-110999999D01*
G75*
G02*
X117749999Y-110750000I249999J0D01*
G01*
X118400001Y-110750000D01*
G75*
G02*
X118650000Y-110999999I0J-249999D01*
G01*
G37*
G36*
G01*
X120700000Y-110999999D02*
X120700000Y-111900001D01*
G75*
G02*
X120450001Y-112150000I-249999J0D01*
G01*
X119799999Y-112150000D01*
G75*
G02*
X119550000Y-111900001I0J249999D01*
G01*
X119550000Y-110999999D01*
G75*
G02*
X119799999Y-110750000I249999J0D01*
G01*
X120450001Y-110750000D01*
G75*
G02*
X120700000Y-110999999I0J-249999D01*
G01*
G37*
%TD*%
%TO.C,R9*%
G36*
G01*
X118650000Y-122049999D02*
X118650000Y-122950001D01*
G75*
G02*
X118400001Y-123200000I-249999J0D01*
G01*
X117749999Y-123200000D01*
G75*
G02*
X117500000Y-122950001I0J249999D01*
G01*
X117500000Y-122049999D01*
G75*
G02*
X117749999Y-121800000I249999J0D01*
G01*
X118400001Y-121800000D01*
G75*
G02*
X118650000Y-122049999I0J-249999D01*
G01*
G37*
G36*
G01*
X120700000Y-122049999D02*
X120700000Y-122950001D01*
G75*
G02*
X120450001Y-123200000I-249999J0D01*
G01*
X119799999Y-123200000D01*
G75*
G02*
X119550000Y-122950001I0J249999D01*
G01*
X119550000Y-122049999D01*
G75*
G02*
X119799999Y-121800000I249999J0D01*
G01*
X120450001Y-121800000D01*
G75*
G02*
X120700000Y-122049999I0J-249999D01*
G01*
G37*
%TD*%
%TO.C,R10*%
G36*
G01*
X115912500Y-124200000D02*
X116387500Y-124200000D01*
G75*
G02*
X116625000Y-124437500I0J-237500D01*
G01*
X116625000Y-125012500D01*
G75*
G02*
X116387500Y-125250000I-237500J0D01*
G01*
X115912500Y-125250000D01*
G75*
G02*
X115675000Y-125012500I0J237500D01*
G01*
X115675000Y-124437500D01*
G75*
G02*
X115912500Y-124200000I237500J0D01*
G01*
G37*
G36*
G01*
X115912500Y-125950000D02*
X116387500Y-125950000D01*
G75*
G02*
X116625000Y-126187500I0J-237500D01*
G01*
X116625000Y-126762500D01*
G75*
G02*
X116387500Y-127000000I-237500J0D01*
G01*
X115912500Y-127000000D01*
G75*
G02*
X115675000Y-126762500I0J237500D01*
G01*
X115675000Y-126187500D01*
G75*
G02*
X115912500Y-125950000I237500J0D01*
G01*
G37*
%TD*%
%TO.C,R11*%
G36*
G01*
X113637500Y-124150000D02*
X114112500Y-124150000D01*
G75*
G02*
X114350000Y-124387500I0J-237500D01*
G01*
X114350000Y-124962500D01*
G75*
G02*
X114112500Y-125200000I-237500J0D01*
G01*
X113637500Y-125200000D01*
G75*
G02*
X113400000Y-124962500I0J237500D01*
G01*
X113400000Y-124387500D01*
G75*
G02*
X113637500Y-124150000I237500J0D01*
G01*
G37*
G36*
G01*
X113637500Y-125900000D02*
X114112500Y-125900000D01*
G75*
G02*
X114350000Y-126137500I0J-237500D01*
G01*
X114350000Y-126712500D01*
G75*
G02*
X114112500Y-126950000I-237500J0D01*
G01*
X113637500Y-126950000D01*
G75*
G02*
X113400000Y-126712500I0J237500D01*
G01*
X113400000Y-126137500D01*
G75*
G02*
X113637500Y-125900000I237500J0D01*
G01*
G37*
%TD*%
D19*
%TO.C,U1*%
X158675000Y-122825000D03*
X158675000Y-122175000D03*
X158675000Y-121525000D03*
X158675000Y-120875000D03*
X158675000Y-120225000D03*
X158675000Y-119575000D03*
X158675000Y-118925000D03*
X158675000Y-118275000D03*
X153125000Y-118275000D03*
X153125000Y-118925000D03*
X153125000Y-119575000D03*
X153125000Y-120225000D03*
X153125000Y-120875000D03*
X153125000Y-121525000D03*
X153125000Y-122175000D03*
X153125000Y-122825000D03*
D20*
X155165000Y-119207500D03*
X155165000Y-120102500D03*
X155165000Y-120997500D03*
X155165000Y-121892500D03*
X156635000Y-119207500D03*
X156635000Y-120102500D03*
X156635000Y-120997500D03*
X156635000Y-121892500D03*
%TD*%
D21*
%TO.C,U6*%
X120765000Y-103460000D03*
X111235000Y-108540000D03*
X120765000Y-106000000D03*
X111235000Y-106000000D03*
X120765000Y-108540000D03*
X111235000Y-103460000D03*
%TD*%
%TO.C,U7*%
X111235000Y-114460000D03*
X120765000Y-119540000D03*
X111235000Y-117000000D03*
X120765000Y-117000000D03*
X111235000Y-119540000D03*
X120765000Y-114460000D03*
%TD*%
D22*
%TO.C,C9*%
X145200000Y-124575000D03*
D23*
X145200000Y-127075000D03*
%TD*%
%TO.C,C13*%
G36*
G01*
X133250000Y-128987500D02*
X133250000Y-128512500D01*
G75*
G02*
X133487500Y-128275000I237500J0D01*
G01*
X134062500Y-128275000D01*
G75*
G02*
X134300000Y-128512500I0J-237500D01*
G01*
X134300000Y-128987500D01*
G75*
G02*
X134062500Y-129225000I-237500J0D01*
G01*
X133487500Y-129225000D01*
G75*
G02*
X133250000Y-128987500I0J237500D01*
G01*
G37*
G36*
G01*
X131500000Y-128987500D02*
X131500000Y-128512500D01*
G75*
G02*
X131737500Y-128275000I237500J0D01*
G01*
X132312500Y-128275000D01*
G75*
G02*
X132550000Y-128512500I0J-237500D01*
G01*
X132550000Y-128987500D01*
G75*
G02*
X132312500Y-129225000I-237500J0D01*
G01*
X131737500Y-129225000D01*
G75*
G02*
X131500000Y-128987500I0J237500D01*
G01*
G37*
%TD*%
%TO.C,C15*%
G36*
G01*
X140762500Y-118850000D02*
X141237500Y-118850000D01*
G75*
G02*
X141475000Y-119087500I0J-237500D01*
G01*
X141475000Y-119662500D01*
G75*
G02*
X141237500Y-119900000I-237500J0D01*
G01*
X140762500Y-119900000D01*
G75*
G02*
X140525000Y-119662500I0J237500D01*
G01*
X140525000Y-119087500D01*
G75*
G02*
X140762500Y-118850000I237500J0D01*
G01*
G37*
G36*
G01*
X140762500Y-120600000D02*
X141237500Y-120600000D01*
G75*
G02*
X141475000Y-120837500I0J-237500D01*
G01*
X141475000Y-121412500D01*
G75*
G02*
X141237500Y-121650000I-237500J0D01*
G01*
X140762500Y-121650000D01*
G75*
G02*
X140525000Y-121412500I0J237500D01*
G01*
X140525000Y-120837500D01*
G75*
G02*
X140762500Y-120600000I237500J0D01*
G01*
G37*
%TD*%
D14*
%TO.C,TP3*%
X128200000Y-115600000D03*
%TD*%
M02*
