M48
; DRILL file {KiCad 5.1.8-db9833491~88~ubuntu20.04.1} date Mon Jun 21 07:12:05 2021
; FORMAT={2:4/ absolute / inch / keep zeros}
; #@! TF.CreationDate,2021-06-21T07:12:05+02:00
; #@! TF.GenerationSoftware,Kicad,Pcbnew,5.1.8-db9833491~88~ubuntu20.04.1
; #@! TF.FileFunction,Plated,1,2,PTH
FMAT,2
INCH
T1C0.0157
T2C0.0315
T3C0.0394
T4C0.0591
T5C0.0748
T6C0.1181
%
G90
G05
T1
X043465Y-047992
X045276Y-048219
X046201Y-045886
X046496Y-042963
X048051Y-048819
X048228Y-046063
X048819Y-040157
X048819Y-040945
X048819Y-042520
X049705Y-044193
X050138Y-043100
X050374Y-048051
X051496Y-050167
X051654Y-046644
X052030Y-048637
X052362Y-040157
X052362Y-040945
X052362Y-041732
X052362Y-042520
X052362Y-043307
X052362Y-044094
X052362Y-047638
X052362Y-048425
X052362Y-049213
X053150Y-040157
X053150Y-040945
X053150Y-041732
X053150Y-042520
X053150Y-043307
X053150Y-044094
X053150Y-047638
X053150Y-048425
X053296Y-049341
X053661Y-045945
X053898Y-049311
X053937Y-040157
X053937Y-040945
X053937Y-041732
X053937Y-042520
X053937Y-043307
X053937Y-044094
X053937Y-047638
X053937Y-048425
X054626Y-046644
X055492Y-048140
X055512Y-046063
X055512Y-050000
X055965Y-042480
X056063Y-043159
X056299Y-044882
X056299Y-046063
X056506Y-048780
X057657Y-041555
X057854Y-039724
X059370Y-046201
X059587Y-047323
X059596Y-047736
X060571Y-049055
X060630Y-050000
X061024Y-049606
X061024Y-050394
X061220Y-046024
X061417Y-050000
X061614Y-046024
X061683Y-049055
X062008Y-046024
X062480Y-046191
X063012Y-047825
X064213Y-045118
T2
X057165Y-049045
X057165Y-050030
T3
X048976Y-044039
X048976Y-045039
X048976Y-046039
X048976Y-047039
X048976Y-048039
X048976Y-049039
X048976Y-050039
T4
X063720Y-043026
X063720Y-044526
X063720Y-046026
X063720Y-047526
X042579Y-043026
X042579Y-044526
X042579Y-046026
X042579Y-047526
T5
X060305Y-040315
X060305Y-045512
T6
X040551Y-040551
X040551Y-050000
X065748Y-040551
X065748Y-050000
T0
M30
